<svg xmlns="http://www.w3.org/2000/svg" width="2714" height="1409" viewBox="0 0 2714 1409" version="1.1"><path d="M 1396.251 379.453 C 1388.135 381.299, 1380.639 385.435, 1376.367 390.426 C 1367.394 400.909, 1366.346 424.811, 1374.336 436.766 C 1379.063 443.839, 1384.891 447.128, 1403.107 453.004 C 1416.854 457.438, 1419.952 458.815, 1423.392 462.024 C 1427.339 465.706, 1427.462 466.020, 1427.831 473.322 C 1428.040 477.471, 1427.688 482.415, 1427.044 484.367 C 1423.643 494.671, 1407.034 499.139, 1394.983 492.992 C 1391.207 491.065, 1385.018 484.014, 1384.985 481.600 C 1384.976 480.995, 1384.578 479.883, 1384.101 479.128 C 1383.394 478.013, 1381.690 478.387, 1374.989 481.127 C 1370.456 482.981, 1366.524 485.076, 1366.253 485.783 C 1365.389 488.035, 1371.866 499.646, 1376.140 503.507 C 1387.276 513.569, 1406.347 516.534, 1424.285 510.994 C 1431.679 508.710, 1439.857 502.181, 1442.927 496.113 C 1448.894 484.313, 1448.143 462.586, 1441.433 452.903 C 1436.501 445.786, 1431.069 442.832, 1411.214 436.468 C 1391.015 429.993, 1388 427.211, 1388 415.046 C 1388 403.858, 1391.644 399.128, 1401.969 396.913 C 1412.853 394.579, 1421.375 398.667, 1425.529 408.215 C 1426.554 410.572, 1427.518 412.676, 1427.671 412.891 C 1428.136 413.546, 1445 405.741, 1445 404.870 C 1445 401.950, 1439.339 392.244, 1435.252 388.157 C 1426.648 379.553, 1411.085 376.079, 1396.251 379.453 M 1279 446 L 1279 512 1315 512 L 1351 512 1351 503.500 L 1351 495 1324.500 495 L 1298 495 1298 475 L 1298 455 1321 455 L 1344 455 1344 446.500 L 1344 438 1321 438 L 1298 438 1298 417.500 L 1298 397 1324.500 397 L 1351 397 1351 388.500 L 1351 380 1315 380 L 1279 380 1279 446 M 1468.941 446.031 L 1481.500 512.061 1491.477 511.781 L 1501.453 511.500 1510.977 468.815 C 1516.214 445.338, 1520.740 425.898, 1521.033 425.615 C 1521.327 425.332, 1525.300 442.965, 1529.863 464.800 C 1534.425 486.635, 1538.590 506.188, 1539.118 508.250 L 1540.077 512 1549.805 512 L 1559.533 512 1570.959 452.250 C 1577.243 419.387, 1582.921 389.672, 1583.577 386.215 L 1584.770 379.930 1575.161 380.215 L 1565.552 380.500 1557.351 428.500 C 1552.840 454.900, 1549.003 477.362, 1548.825 478.415 C 1548.646 479.468, 1543.755 457.868, 1537.955 430.415 L 1527.410 380.500 1520.530 380.500 L 1513.650 380.500 1503.363 429 C 1497.706 455.675, 1492.938 478.175, 1492.769 479 C 1492.599 479.825, 1488.657 457.887, 1484.008 430.250 L 1475.556 380 1465.969 380 L 1456.382 380 1468.941 446.031 M 1601.009 444.250 C 1590.398 479.587, 1581.502 509.288, 1581.241 510.250 C 1580.812 511.832, 1581.732 512, 1590.845 512 L 1600.923 512 1601.905 508.250 C 1602.445 506.188, 1604.111 499.887, 1605.607 494.250 L 1608.328 484 1628.593 484 L 1648.858 484 1650.359 489.250 C 1651.185 492.137, 1652.882 498.438, 1654.131 503.250 L 1656.401 512 1666.201 512 C 1672.245 512, 1676 511.606, 1676 510.972 C 1676 510.106, 1649.476 421.044, 1639.898 389.750 L 1636.914 380 1628.608 380 L 1620.302 380 1601.009 444.250 M 1675 388.500 L 1675 397 1690 397 L 1705 397 1705 454.500 L 1705 512 1714.500 512 L 1724 512 1724 454.500 L 1724 397 1739 397 L 1754 397 1754 388.500 L 1754 380 1714.500 380 L 1675 380 1675 388.500 M 1768 446 L 1768 512 1777.500 512 L 1787 512 1787 446 L 1787 380 1777.500 380 L 1768 380 1768 446 M 1811 446 L 1811 512 1820.500 512 L 1830 512 1830.038 466.250 L 1830.077 420.500 1853.120 466.250 L 1876.164 512 1884.582 512 L 1893 512 1893 446 L 1893 380 1884 380 L 1875 380 1874.945 426.750 L 1874.891 473.500 1851.443 426.750 L 1827.996 380 1819.498 380 L 1811 380 1811 446 M 1918 446 L 1918 512 1927.500 512 L 1937 512 1937 446 L 1937 380 1927.500 380 L 1918 380 1918 446 M 1620.852 437.260 L 1613.349 465.500 1628.314 465.777 C 1636.545 465.929, 1643.452 465.882, 1643.662 465.672 C 1644.052 465.281, 1629.397 410.064, 1628.725 409.391 C 1628.521 409.187, 1624.978 421.729, 1620.852 437.260 M 1914.176 571.004 C 1899.509 574.114, 1889.255 584.037, 1885.479 598.774 C 1884.132 604.032, 1883.934 610.554, 1884.204 640.750 C 1884.516 675.788, 1884.571 676.620, 1886.924 682.500 C 1890.244 690.796, 1899.344 699.870, 1907.342 702.858 C 1915.616 705.950, 1925.854 706.594, 1934.478 704.565 C 1949.903 700.936, 1959.468 691.034, 1962.870 675.172 C 1964.384 668.113, 1964.396 607.982, 1962.885 600.799 C 1960.161 587.848, 1951.508 577.205, 1940.290 573.007 C 1933.805 570.581, 1920.856 569.588, 1914.176 571.004 M 2187.344 570.978 C 2173.430 573.943, 2162.953 584.508, 2159.554 599 C 2157.343 608.427, 2157.347 667.602, 2159.558 676.986 C 2164.080 696.170, 2180.633 707.646, 2200.802 705.579 C 2219.944 703.618, 2231.884 691.433, 2234.580 671.109 L 2235.258 666 2225.788 666 L 2216.318 666 2215.073 671.563 C 2213.732 677.556, 2209.737 683.051, 2204.901 685.551 C 2201.579 687.269, 2191.781 687.468, 2188.684 685.880 C 2184.120 683.540, 2179.928 678.496, 2178.473 673.596 C 2176.337 666.406, 2176.337 609.594, 2178.473 602.404 C 2180.979 593.963, 2187.959 588.710, 2196.566 588.787 C 2205.970 588.871, 2212.902 594.733, 2215.073 604.437 L 2216.318 610 2225.659 610 C 2236.455 610, 2236.136 610.446, 2233.459 599.087 C 2229.253 581.245, 2217.313 571.322, 2199 570.450 C 2194.875 570.253, 2189.630 570.491, 2187.344 570.978 M 2408.176 571.004 C 2393.509 574.114, 2383.255 584.037, 2379.479 598.774 C 2378.132 604.032, 2377.934 610.554, 2378.204 640.750 C 2378.516 675.788, 2378.571 676.620, 2380.924 682.500 C 2384.244 690.796, 2393.344 699.870, 2401.342 702.858 C 2409.616 705.950, 2419.854 706.594, 2428.478 704.565 C 2443.903 700.936, 2453.468 691.034, 2456.870 675.172 C 2458.384 668.113, 2458.396 607.982, 2456.885 600.799 C 2454.161 587.848, 2445.508 577.205, 2434.290 573.007 C 2427.805 570.581, 2414.856 569.588, 2408.176 571.004 M 1787.750 571.568 C 1787.338 571.989, 1787 601.958, 1787 638.167 L 1787 704 1796.500 704 L 1806 704 1806 676.500 L 1806 649 1816.366 649 L 1826.731 649 1837.752 676.250 L 1848.774 703.500 1859.387 703.784 C 1865.224 703.940, 1870 703.882, 1870 703.656 C 1870 703.429, 1864.600 690.590, 1858 675.124 C 1851.400 659.658, 1846 646.608, 1846 646.123 C 1846 645.639, 1847.353 644.682, 1849.006 643.997 C 1853.131 642.289, 1859.453 635.761, 1861.923 630.660 C 1867.770 618.581, 1867.166 597.785, 1860.646 586.660 C 1859.121 584.057, 1855.774 580.404, 1853.208 578.542 C 1844.715 572.378, 1841.288 571.749, 1813.500 571.251 C 1799.750 571.004, 1788.162 571.147, 1787.750 571.568 M 1279 638.013 L 1279 704.147 1305.275 703.824 L 1331.550 703.500 1338.190 700.229 C 1345.796 696.482, 1350.187 691.959, 1353.899 684.046 L 1356.500 678.500 1356.500 638 L 1356.500 597.500 1353.899 591.954 C 1350.188 584.042, 1345.796 579.518, 1338.190 575.771 L 1331.551 572.500 1305.276 572.189 L 1279 571.879 1279 638.013 M 1386.009 636.250 C 1375.398 671.587, 1366.502 701.288, 1366.241 702.250 C 1365.812 703.832, 1366.732 704, 1375.845 704 L 1385.923 704 1386.905 700.250 C 1387.445 698.188, 1389.111 691.888, 1390.607 686.250 L 1393.328 676 1413.593 676 L 1433.858 676 1435.359 681.250 C 1436.185 684.138, 1437.882 690.438, 1439.131 695.250 L 1441.401 704 1451.201 704 C 1457.245 704, 1461 703.606, 1461 702.972 C 1461 702.106, 1434.476 613.044, 1424.898 581.750 L 1421.914 572 1413.608 572 L 1405.302 572 1386.009 636.250 M 1459 580.500 L 1459 589 1474 589 L 1489 589 1489 646.500 L 1489 704 1498.500 704 L 1508 704 1508 646.500 L 1508 589 1523 589 L 1538 589 1538 580.500 L 1538 572 1498.500 572 L 1459 572 1459 580.500 M 1556.009 636.250 C 1545.398 671.587, 1536.502 701.288, 1536.241 702.250 C 1535.812 703.832, 1536.732 704, 1545.845 704 L 1555.923 704 1556.905 700.250 C 1557.445 698.188, 1559.111 691.888, 1560.607 686.250 L 1563.328 676 1583.593 676 L 1603.858 676 1605.359 681.250 C 1606.185 684.138, 1607.882 690.438, 1609.131 695.250 L 1611.401 704 1621.201 704 C 1627.245 704, 1631 703.606, 1631 702.972 C 1631 702.106, 1604.476 613.044, 1594.898 581.750 L 1591.914 572 1583.608 572 L 1575.302 572 1556.009 636.250 M 1690 638 L 1690 704 1699.500 704 L 1709 704 1709 678.597 L 1709 653.194 1726.750 652.819 C 1743.696 652.460, 1744.756 652.319, 1750.161 649.691 C 1756.670 646.527, 1762.287 640.773, 1765.363 634.122 C 1767.281 629.974, 1767.500 627.756, 1767.500 612.500 C 1767.500 595.948, 1767.427 595.351, 1764.730 589.858 C 1761.190 582.652, 1754.877 576.846, 1747.631 574.135 C 1742.343 572.156, 1740.024 572, 1715.962 572 L 1690 572 1690 638 M 1974 580.500 L 1974 589 1989 589 L 2004 589 2004 646.500 L 2004 704 2013.500 704 L 2023 704 2023 646.500 L 2023 589 2038 589 L 2053 589 2053 580.500 L 2053 572 2013.500 572 L 1974 572 1974 580.500 M 2068 638 L 2068 704 2104 704 L 2140 704 2140 695.500 L 2140 687 2113.500 687 L 2087 687 2087 667 L 2087 647 2110 647 L 2133 647 2133 638.500 L 2133 630 2110 630 L 2087 630 2087 609.500 L 2087 589 2113.500 589 L 2140 589 2140 580.500 L 2140 572 2104 572 L 2068 572 2068 638 M 2242 580.500 L 2242 589 2257 589 L 2272 589 2272 646.500 L 2272 704 2281.500 704 L 2291 704 2291 646.500 L 2291 589 2306 589 L 2321 589 2321 580.500 L 2321 572 2281.500 572 L 2242 572 2242 580.500 M 2335 638 L 2335 704 2344.500 704 L 2354 704 2354 638 L 2354 572 2344.500 572 L 2335 572 2335 638 M 2479 638 L 2479 704 2488.500 704 L 2498 704 2498.038 658.250 L 2498.077 612.500 2521.120 658.250 L 2544.164 704 2552.582 704 L 2561 704 2561 638 L 2561 572 2552 572 L 2543 572 2542.945 618.750 L 2542.891 665.500 2519.443 618.750 L 2495.996 572 2487.498 572 L 2479 572 2479 638 M 1298 637.884 L 1298 687 1308.451 687 C 1326.563 687, 1333.180 684.336, 1336.467 675.722 C 1337.860 672.070, 1338.038 666.692, 1337.789 635.921 L 1337.500 600.341 1334.618 596.565 C 1330.297 590.901, 1326.519 589.711, 1311.250 589.206 L 1298 588.768 1298 637.884 M 1709 611.908 L 1709 635 1723.750 634.996 C 1741.156 634.992, 1743.775 634.025, 1747.172 626.344 C 1748.919 622.395, 1749.157 620.138, 1748.849 610.438 C 1748.461 598.220, 1747.632 596.056, 1741.617 591.562 C 1739.177 589.738, 1737.133 589.461, 1723.929 589.158 L 1709 588.817 1709 611.908 M 1806 610 L 1806 631.183 1820.750 630.842 C 1837.438 630.455, 1840.752 629.346, 1844.137 623.016 C 1846.775 618.082, 1846.728 603.201, 1844.057 597.316 C 1841.021 590.630, 1838.058 589.595, 1820.750 589.175 L 1806 588.817 1806 610 M 1914.481 590.394 C 1910.368 592.186, 1905.332 598.144, 1904.060 602.723 C 1903.430 604.991, 1903.011 619.087, 1903.011 638 C 1903.011 656.913, 1903.430 671.009, 1904.060 673.277 C 1905.365 677.978, 1910.428 683.863, 1914.702 685.649 C 1919.170 687.516, 1929.362 687.372, 1933.300 685.386 C 1938.620 682.702, 1941.968 678.846, 1943.524 673.609 C 1945.662 666.407, 1945.665 609.604, 1943.527 602.404 C 1941.934 597.040, 1937.348 591.820, 1932.685 590.061 C 1928.814 588.602, 1918.146 588.797, 1914.481 590.394 M 2408.481 590.394 C 2404.368 592.186, 2399.332 598.144, 2398.060 602.723 C 2396.658 607.772, 2396.658 668.228, 2398.060 673.277 C 2399.365 677.978, 2404.428 683.863, 2408.702 685.649 C 2413.170 687.516, 2423.362 687.372, 2427.300 685.386 C 2432.620 682.702, 2435.968 678.846, 2437.524 673.609 C 2439.662 666.407, 2439.665 609.604, 2437.527 602.404 C 2435.934 597.040, 2431.348 591.820, 2426.685 590.061 C 2422.814 588.602, 2412.146 588.797, 2408.481 590.394 M 1405.852 629.260 L 1398.349 657.500 1413.314 657.777 C 1421.545 657.929, 1428.452 657.882, 1428.662 657.672 C 1429.052 657.281, 1414.397 602.064, 1413.725 601.391 C 1413.521 601.187, 1409.978 613.729, 1405.852 629.260 M 1575.852 629.260 L 1568.349 657.500 1583.314 657.777 C 1591.545 657.929, 1598.452 657.882, 1598.662 657.672 C 1599.052 657.281, 1584.397 602.064, 1583.725 601.391 C 1583.521 601.187, 1579.978 613.729, 1575.852 629.260 M 536.200 713.200 C 535.369 714.031, 535 719.210, 535 730.045 C 535 743.932, 535.206 745.876, 536.829 747.345 C 539.551 749.809, 545.210 749.469, 547.826 746.686 C 549.849 744.532, 550 743.377, 550 730.053 C 550 716.640, 549.864 715.616, 547.847 713.867 C 545.381 711.728, 538.089 711.311, 536.200 713.200 M 553.750 713.392 C 552.219 714.554, 552 716.614, 552 729.849 C 552 747.513, 552.587 749, 559.567 749 C 566.512 749, 567 747.754, 567 730.032 C 567 716.622, 566.783 714.555, 565.250 713.392 C 562.993 711.678, 556.007 711.678, 553.750 713.392 M 571.250 713.496 C 570.366 714.500, 570 719.417, 570 730.303 C 570 743.940, 570.208 745.878, 571.829 747.345 C 574.134 749.431, 579.866 749.483, 582.777 747.443 C 584.911 745.949, 585 745.268, 585 730.443 C 585 709.635, 583.140 709.891, 582.775 730.750 L 582.500 746.500 577.250 746.802 L 572 747.105 572 730.552 L 572 714 577.559 714 C 581.010 714, 582.884 713.621, 582.500 713 C 581.553 711.468, 572.691 711.859, 571.250 713.496 M 588.237 713.992 C 587.388 715.352, 587.015 720.500, 587.062 730.242 C 587.124 743.317, 587.305 744.687, 589.239 746.750 C 591.908 749.597, 597.943 749.826, 600.345 747.171 C 601.735 745.635, 602 742.864, 602 729.871 C 602 719.171, 601.630 714.030, 600.800 713.200 C 600.140 712.540, 597.323 712, 594.541 712 C 590.571 712, 589.213 712.429, 588.237 713.992 M 606.655 713.829 C 605.270 715.360, 605 718.104, 605 730.674 C 605 747.883, 605.473 749, 612.756 749 C 615.848 749, 617.303 748.432, 618.677 746.687 C 620.311 744.614, 620.449 742.826, 620.012 729.437 L 619.523 714.500 619.012 730.500 L 618.500 746.500 613 746.500 L 607.500 746.500 607.225 730.250 L 606.950 714 612.475 714 C 615.514 714, 618 713.550, 618 713 C 618 711.141, 608.456 711.838, 606.655 713.829 M 624.241 713.986 C 623.399 715.333, 623.011 720.565, 623.033 730.236 C 623.072 746.812, 623.941 749, 630.482 749 C 636.832 749, 637.217 747.914, 637.107 730.327 C 637.044 720.359, 636.601 714.224, 635.882 713.358 C 635.229 712.571, 632.804 712, 630.118 712 C 626.575 712, 625.189 712.468, 624.241 713.986 M 537 730.500 L 537 747.105 542.250 746.802 L 547.500 746.500 547.500 730.500 L 547.500 714.500 542.250 714.198 L 537 713.895 537 730.500 M 554.225 730.250 L 554.500 746.500 559.500 746.500 L 564.500 746.500 564.775 730.250 L 565.050 714 559.500 714 L 553.950 714 554.225 730.250 M 589.800 729.250 C 589.635 737.638, 589.893 745.063, 590.372 745.750 C 590.852 746.438, 593.215 747, 595.622 747 L 600 747 600 730.500 L 600 714 595.050 714 L 590.100 714 589.800 729.250 M 625.225 730.250 L 625.500 746.500 630.500 746.500 L 635.500 746.500 635.775 730.250 L 636.050 714 630.500 714 L 624.950 714 625.225 730.250 M 672 731 L 672 745 675.500 745 L 679 745 679 731 L 679 717 675.500 717 L 672 717 672 731 M 690.500 731 L 690.500 745 693.250 745 L 696 745 696 731 L 696 717 693.250 717 L 690.500 717 690.500 731 M 707 731 L 707 745 710.500 745 L 714 745 714 731 L 714 717 710.500 717 L 707 717 707 731 M 725.500 731 L 725.500 745 728.500 745 L 731.500 745 731.500 731 L 731.500 717 728.500 717 L 725.500 717 725.500 731 M 743 731 L 743 745 746 745 L 749 745 749 731 L 749 717 746 717 L 743 717 743 731 M 761 731 L 761 745 764 745 L 767 745 767 731 L 767 717 764 717 L 761 717 761 731 M 674 731 C 674 741, 674.250 743, 675.500 743 C 676.750 743, 677 741, 677 731 C 677 721, 676.750 719, 675.500 719 C 674.250 719, 674 721, 674 731 M 692 731 C 692 738.333, 692.389 743, 693 743 C 693.611 743, 694 738.333, 694 731 C 694 723.667, 693.611 719, 693 719 C 692.389 719, 692 723.667, 692 731 M 709.102 731 C 708.942 741.230, 709.141 743, 710.457 743 C 711.762 743, 712 741.149, 712 731 C 712 721.570, 711.710 719, 710.645 719 C 709.591 719, 709.248 721.663, 709.102 731 M 727.191 728.944 C 727.098 734.413, 727.439 739.925, 727.948 741.194 C 728.594 742.805, 728.892 739.807, 728.937 731.250 C 728.971 724.513, 728.631 719, 728.179 719 C 727.728 719, 727.283 723.475, 727.191 728.944 M 744.882 719.750 C 744.816 720.163, 744.859 720.950, 744.976 721.500 C 745.092 722.050, 745.132 727.112, 745.063 732.750 C 744.984 739.205, 745.319 743, 745.969 743 C 746.620 743, 747 738.576, 747 731 C 747 723.667, 746.611 719, 746 719 C 745.450 719, 744.947 719.337, 744.882 719.750 M 763.015 730.750 C 763.005 738.676, 763.372 743, 764.054 743 C 765.272 743, 765.038 721.659, 763.798 719.708 C 763.376 719.043, 763.024 724.013, 763.015 730.750 M 1684.176 763.004 C 1669.509 766.114, 1659.255 776.037, 1655.479 790.774 C 1654.132 796.032, 1653.934 802.554, 1654.204 832.750 C 1654.516 867.788, 1654.571 868.620, 1656.924 874.500 C 1660.244 882.796, 1669.344 891.870, 1677.342 894.858 C 1685.616 897.950, 1695.854 898.594, 1704.478 896.565 C 1719.903 892.936, 1729.468 883.034, 1732.870 867.172 C 1734.384 860.113, 1734.396 799.982, 1732.885 792.799 C 1730.161 779.848, 1721.508 769.205, 1710.290 765.007 C 1703.805 762.581, 1690.856 761.588, 1684.176 763.004 M 1755.750 763.568 C 1755.338 763.989, 1755 793.958, 1755 830.167 L 1755 896 1764.500 896 L 1774 896 1774 868.500 L 1774 841 1784.366 841 L 1794.731 841 1805.752 868.250 L 1816.774 895.500 1827.387 895.784 C 1833.224 895.940, 1838 895.882, 1838 895.656 C 1838 895.429, 1832.600 882.590, 1826 867.124 C 1819.400 851.658, 1814 838.608, 1814 838.123 C 1814 837.639, 1815.353 836.682, 1817.006 835.997 C 1821.131 834.289, 1827.453 827.761, 1829.923 822.660 C 1835.770 810.581, 1835.166 789.785, 1828.646 778.660 C 1827.121 776.057, 1823.774 772.404, 1821.208 770.542 C 1812.715 764.378, 1809.288 763.749, 1781.500 763.251 C 1767.750 763.004, 1756.162 763.147, 1755.750 763.568 M 672 778 L 672 792 675.500 792 L 679 792 679 778 L 679 764 675.500 764 L 672 764 672 778 M 690.500 778 L 690.500 792 693.250 792 L 696 792 696 778 L 696 764 693.250 764 L 690.500 764 690.500 778 M 707 778 L 707 792 710.500 792 L 714 792 714 778 L 714 764 710.500 764 L 707 764 707 778 M 725.500 778 L 725.500 792 728.500 792 L 731.500 792 731.500 778 L 731.500 764 728.500 764 L 725.500 764 725.500 778 M 743 778 L 743 792 746 792 L 749 792 749 778 L 749 764 746 764 L 743 764 743 778 M 761 778 L 761 792 764 792 L 767 792 767 778 L 767 764 764 764 L 761 764 761 778 M 1290.009 828.250 C 1279.398 863.587, 1270.502 893.288, 1270.241 894.250 C 1269.812 895.832, 1270.732 896, 1279.845 896 L 1289.923 896 1290.905 892.250 C 1291.445 890.188, 1293.111 883.888, 1294.607 878.250 L 1297.328 868 1317.593 868 L 1337.858 868 1339.359 873.250 C 1340.185 876.138, 1341.882 882.438, 1343.131 887.250 L 1345.401 896 1355.201 896 C 1361.245 896, 1365 895.606, 1365 894.972 C 1365 894.106, 1338.476 805.044, 1328.898 773.750 L 1325.914 764 1317.608 764 L 1309.302 764 1290.009 828.250 M 1372 813.833 C 1372 846.686, 1372.382 865.570, 1373.122 869.254 C 1374.739 877.306, 1379.770 885.815, 1385.483 890.159 C 1392.471 895.474, 1399.571 897.486, 1411 897.390 C 1426.024 897.265, 1435.909 892.646, 1442.499 882.674 C 1448.827 873.099, 1449 871.297, 1449 814.790 L 1449 764 1440.066 764 L 1431.132 764 1430.816 814.279 L 1430.500 864.558 1427.975 869.461 C 1424.666 875.890, 1419.101 879, 1410.908 879 C 1407.730 879, 1403.863 878.522, 1402.315 877.939 C 1398.128 876.360, 1393.113 871.065, 1391.996 867.044 C 1391.411 864.938, 1391.009 843.314, 1391.006 813.750 L 1391 764 1381.500 764 L 1372 764 1372 813.833 M 1459 772.500 L 1459 781 1474 781 L 1489 781 1489 838.500 L 1489 896 1498.500 896 L 1508 896 1508 838.500 L 1508 781 1523 781 L 1538 781 1538 772.500 L 1538 764 1498.500 764 L 1459 764 1459 772.500 M 1553 830 L 1553 896 1562.500 896 L 1572 896 1572 868 L 1572 840 1592.500 840 L 1613 840 1613 868 L 1613 896 1622 896 L 1631 896 1631 830 L 1631 764 1622 764 L 1613 764 1613 793 L 1613 822 1592.500 822 L 1572 822 1572 793 L 1572 764 1562.500 764 L 1553 764 1553 830 M 1858 830 L 1858 896 1867.500 896 L 1877 896 1877 830 L 1877 764 1867.500 764 L 1858 764 1858 830 M 1895 772.500 L 1895 781 1910 781 L 1925 781 1925 838.500 L 1925 896 1934.500 896 L 1944 896 1944 838.500 L 1944 781 1959 781 L 1974 781 1974 772.500 L 1974 764 1934.500 764 L 1895 764 1895 772.500 M 1998.086 803.378 L 2015 842.825 2015 869.412 L 2015 896 2024 896 L 2033 896 2033 869.153 L 2033 842.306 2049.091 804.403 C 2057.941 783.556, 2065.415 765.938, 2065.698 765.250 C 2066.091 764.299, 2063.820 764, 2056.201 764 L 2046.187 764 2040.048 779.750 C 2036.672 788.413, 2031.792 801.002, 2029.205 807.726 C 2026.617 814.450, 2024.275 819.957, 2024 819.964 C 2023.725 819.971, 2018.530 807.494, 2012.455 792.238 L 2001.411 764.500 1991.291 764.216 L 1981.171 763.932 1998.086 803.378 M 674 778 C 674 788, 674.250 790, 675.500 790 C 676.750 790, 677 788, 677 778 C 677 768, 676.750 766, 675.500 766 C 674.250 766, 674 768, 674 778 M 692 778 C 692 785.333, 692.389 790, 693 790 C 693.611 790, 694 785.333, 694 778 C 694 770.667, 693.611 766, 693 766 C 692.389 766, 692 770.667, 692 778 M 709.102 778 C 709.248 787.337, 709.591 790, 710.645 790 C 711.710 790, 712 787.430, 712 778 C 712 767.851, 711.762 766, 710.457 766 C 709.141 766, 708.942 767.770, 709.102 778 M 727.583 768.750 C 726.735 772.796, 727.215 790, 728.176 790 C 728.629 790, 729 784.600, 729 778 C 729 771.400, 728.811 766, 728.579 766 C 728.348 766, 727.900 767.237, 727.583 768.750 M 745.063 776.250 C 745.132 781.888, 745.033 787.119, 744.844 787.875 C 744.655 788.631, 745.063 789.456, 745.750 789.708 C 746.706 790.059, 747 787.328, 747 778.083 C 747 770.450, 746.620 766, 745.969 766 C 745.319 766, 744.984 769.795, 745.063 776.250 M 763.015 778.250 C 763.024 784.987, 763.376 789.957, 763.798 789.292 C 765.038 787.341, 765.272 766, 764.054 766 C 763.372 766, 763.005 770.324, 763.015 778.250 M 1684.481 782.394 C 1680.368 784.186, 1675.332 790.144, 1674.060 794.723 C 1673.430 796.991, 1673.011 811.087, 1673.011 830 C 1673.011 848.913, 1673.430 863.009, 1674.060 865.277 C 1675.365 869.978, 1680.428 875.863, 1684.702 877.649 C 1689.170 879.516, 1699.362 879.372, 1703.300 877.386 C 1708.620 874.702, 1711.968 870.846, 1713.524 865.609 C 1715.662 858.407, 1715.665 801.604, 1713.527 794.404 C 1711.934 789.040, 1707.348 783.820, 1702.685 782.061 C 1698.814 780.602, 1688.146 780.797, 1684.481 782.394 M 1774 802 L 1774 823.183 1788.750 822.842 C 1805.438 822.455, 1808.752 821.346, 1812.137 815.016 C 1814.775 810.082, 1814.728 795.201, 1812.057 789.316 C 1809.021 782.630, 1806.058 781.595, 1788.750 781.175 L 1774 780.817 1774 802 M 1309.852 821.260 L 1302.349 849.500 1317.314 849.777 C 1325.545 849.929, 1332.452 849.882, 1332.662 849.672 C 1333.052 849.281, 1318.397 794.064, 1317.725 793.391 C 1317.521 793.187, 1313.978 805.729, 1309.852 821.260" stroke="none" fill="#060606" fill-rule="evenodd"/><path d="M 632.500 647.583 C 625.350 648.324, 617.475 649.381, 615 649.934 C 612.525 650.487, 608.311 651.236, 605.635 651.600 C 602.959 651.964, 597.784 653.369, 594.135 654.724 C 590.486 656.078, 583 658.771, 577.500 660.709 C 568.009 664.054, 558.087 668.505, 557 669.907 C 556.725 670.262, 552.225 673.088, 547 676.188 C 538.633 681.152, 531.024 686.447, 516.198 697.620 L 512.058 700.741 468.508 700.708 C 426.776 700.677, 424.897 700.756, 423.511 702.588 C 421.500 705.245, 421.650 709.373, 423.829 711.345 C 425.458 712.820, 429.540 713, 461.329 713 C 490.778 713, 497 713.238, 497 714.363 C 497 715.113, 494.696 717.882, 491.880 720.516 L 486.759 725.305 441.396 724.591 L 396.032 723.877 393.516 726.393 C 390.342 729.567, 390.323 732.414, 393.455 735.545 L 395.909 738 435.955 738 C 457.980 738, 476 738.262, 476 738.582 C 476 738.902, 474.358 741.167, 472.351 743.616 L 468.702 748.070 431.601 747.538 C 383.999 746.855, 376.651 746.852, 358.500 747.508 C 344.885 747.999, 343.338 748.242, 341.750 750.135 C 340.787 751.283, 340 753.714, 340 755.538 C 340 759.531, 343.782 763, 348.135 763 C 349.711 763, 351 763.255, 351 763.566 C 351 764.708, 348.694 768.562, 346.701 770.750 C 345.574 771.987, 344.999 773, 345.424 773 C 345.850 773, 345.253 774.601, 344.099 776.557 C 342.944 778.514, 342 780.466, 342 780.895 C 342 781.325, 344.137 781.636, 346.750 781.588 L 351.500 781.500 351.500 794.250 C 351.500 806.589, 351.569 807, 353.628 807 C 354.798 807, 357.371 806.325, 359.346 805.500 C 361.320 804.675, 363.295 804, 363.734 804 C 364.173 804, 365.952 806.362, 367.688 809.250 C 371.502 815.597, 377.084 822.211, 380.949 824.964 L 383.797 826.992 387.003 821.996 C 390.231 816.966, 392 815.728, 392 818.500 C 392 821.017, 394.716 820.177, 397.315 816.857 C 399.678 813.837, 399.801 813.798, 400.455 815.857 C 401.570 819.371, 403.438 818.314, 405.500 813 C 407.527 807.777, 408.398 806.988, 409.362 809.500 C 409.678 810.325, 410.292 811, 410.725 811 C 411.655 811, 414 803.892, 414 801.075 C 414 798.623, 415.815 797.415, 417.287 798.887 C 419.832 801.432, 421 800.050, 421 794.492 C 421 789.276, 421.104 789.048, 422.955 790.204 C 424.030 790.875, 425.183 791.151, 425.517 790.816 C 426.893 789.441, 421.880 767.662, 419.908 766.443 C 419.408 766.134, 419 765.234, 419 764.441 C 419 763.223, 423.014 763, 444.885 763 L 470.770 763 472.552 765.750 C 478.369 774.723, 501.805 799.227, 515.500 810.655 C 536.511 828.186, 563.250 843.364, 587.360 851.446 C 606.520 857.869, 614.559 859.546, 636.320 861.662 C 652.010 863.188, 654.296 863.184, 670.320 861.598 C 679.769 860.664, 689.075 859.486, 691 858.982 C 692.925 858.478, 697.650 857.340, 701.500 856.453 C 730.150 849.855, 761.387 833.876, 789 811.694 C 801.182 801.907, 819.742 783.110, 828.931 771.250 L 835.324 763 863.162 763 C 878.473 763, 891 763.230, 891 763.511 C 891 763.792, 890.141 765.929, 889.090 768.261 C 887.105 772.667, 882 787.864, 882 789.367 C 882 790.219, 885.500 789.823, 889.649 788.503 C 891.623 787.875, 891.930 788.396, 893.399 794.857 C 894.280 798.728, 895 804.318, 895 807.281 C 895 810.243, 895.270 812.937, 895.600 813.266 C 896.346 814.013, 900.413 812.293, 904.948 809.312 L 908.397 807.046 913.223 812.461 C 917.745 817.534, 929.195 826, 931.535 826 C 932.113 826, 933.428 823.522, 934.457 820.494 C 936.268 815.168, 936.392 815.044, 938.241 816.718 C 940.066 818.370, 940.239 818.336, 942.054 815.974 C 943.100 814.613, 943.966 812.938, 943.978 812.250 C 944.006 810.690, 944.521 810.684, 946.968 812.212 C 949.507 813.798, 950.130 813.030, 950.747 807.549 C 951.283 802.799, 951.812 802.212, 953.783 804.183 C 955.544 805.944, 955.987 804.947, 956.665 797.683 C 957.232 791.613, 957.433 791.162, 959.162 792.086 C 962.054 793.635, 962.816 792.440, 961.913 787.772 C 960.622 781.095, 960.690 780.764, 963.086 782.046 C 965.721 783.456, 966.470 782.746, 965.081 780.151 C 964.486 779.040, 964 777.402, 964 776.510 C 964 775.618, 962.686 772.239, 961.079 769.001 C 958.533 763.868, 958.349 762.955, 959.645 761.880 C 960.463 761.201, 961.803 759.348, 962.623 757.763 C 963.978 755.142, 963.944 754.589, 962.255 751.690 L 960.396 748.500 948.448 747.708 C 935.160 746.826, 931.995 746.819, 876.389 747.539 L 837.278 748.045 833.639 743.604 C 831.638 741.162, 830 738.902, 830 738.582 C 830 738.262, 834.509 738, 840.020 738 C 848.300 738, 851.069 738.418, 855.970 740.409 C 865.865 744.430, 866.722 744.433, 878.099 740.468 C 883.819 738.474, 891.650 735.796, 895.500 734.515 C 899.350 733.235, 902.500 731.661, 902.500 731.017 C 902.500 730.373, 897.550 728.151, 891.500 726.079 C 885.450 724.007, 879.825 722.054, 879 721.739 C 866.999 717.163, 867.869 717.158, 855 721.875 C 846.995 724.809, 845.683 724.990, 832.466 724.995 L 818.432 725 813.190 719.692 C 810.307 716.773, 808.260 714.073, 808.641 713.692 C 809.022 713.312, 824.570 713, 843.192 713 C 874.984 713, 877.399 713.127, 882.775 715.080 C 897.999 720.612, 897.180 720.585, 910 715.979 C 916.325 713.707, 924.313 710.894, 927.750 709.728 C 931.188 708.561, 934 707.304, 934 706.933 C 934 706.563, 930.513 705.054, 926.250 703.581 C 921.987 702.108, 917.600 700.512, 916.500 700.034 C 909.596 697.034, 898.410 693.874, 896.152 694.285 C 893.878 694.700, 884.822 697.734, 880 699.697 C 879.175 700.033, 859.480 700.408, 836.234 700.530 L 793.969 700.752 781.234 691.268 C 746.524 665.415, 712.334 651.709, 672.241 647.574 C 654.579 645.752, 650.181 645.753, 632.500 647.583 M 643.624 659.001 C 640.392 663.516, 637.270 668.473, 636.687 670.018 C 635.648 672.770, 636.405 675.376, 642.056 688.500 C 642.529 689.600, 643.399 692.399, 643.989 694.720 C 644.964 698.558, 645.442 699.036, 649.280 700.011 C 655.555 701.606, 657.779 702.984, 658.461 705.702 C 658.799 707.047, 661.128 710.143, 663.638 712.582 C 668.089 716.908, 668.185 717.132, 667.570 721.758 C 667.224 724.366, 666.694 730.550, 666.393 735.500 C 665.894 743.700, 666.033 744.699, 667.956 746.744 C 669.117 747.978, 672.063 749.491, 674.503 750.105 C 682.691 752.167, 682.993 755.675, 675.282 759.150 C 665.146 763.718, 663.738 764.568, 662.737 766.721 C 661.970 768.372, 662.121 770.038, 663.326 773.221 C 664.720 776.901, 664.768 778.200, 663.672 782.500 C 662.513 787.047, 661.923 787.757, 657.170 790.329 C 654.295 791.885, 651.218 794.264, 650.332 795.616 C 648.814 797.932, 648.849 798.210, 650.932 800.428 C 652.148 801.722, 657.049 804.669, 661.822 806.975 C 675.552 813.610, 679.657 817.543, 675.250 819.843 C 674.288 820.345, 669.450 821.290, 664.500 821.944 C 649.300 823.950, 645.507 825.631, 646.173 830.063 C 646.425 831.739, 648.214 832.905, 654 835.164 C 669.759 841.316, 678.595 846.319, 684.233 852.284 L 686.966 855.175 693.733 853.570 C 738.495 842.949, 774.278 822.165, 808.352 786.997 C 819.317 775.679, 835 756.554, 835 754.500 C 835 752.418, 818.926 732.808, 808.161 721.757 C 776.920 689.685, 745.044 670.108, 704.500 658.095 C 700.803 657, 688.546 654.437, 680.500 653.077 C 677.200 652.519, 668.875 651.777, 662 651.428 L 649.500 650.793 643.624 659.001 M 889 700.412 C 882.618 702.675, 882.495 702.788, 882.204 706.615 L 881.909 710.514 889.665 713.398 L 897.421 716.283 908.836 712.391 C 915.115 710.251, 920.897 708.036, 921.687 707.469 C 922.783 706.682, 920.587 705.537, 912.409 702.631 C 898.789 697.792, 896.896 697.613, 889 700.412 M 426.380 705.452 C 426.074 706.251, 426.114 707.376, 426.470 707.952 C 426.904 708.653, 439.792 709, 465.404 709 C 501.225 709, 503.797 708.882, 505.345 707.171 C 506.255 706.165, 507 705.040, 507 704.671 C 507 704.302, 488.986 704, 466.969 704 C 432.894 704, 426.854 704.216, 426.380 705.452 M 799 704.830 C 799 705.303, 799.823 706.435, 800.829 707.345 C 802.440 708.803, 806.023 709, 830.898 709 L 859.139 709 858.820 706.750 L 858.500 704.500 828.750 704.235 C 812.388 704.089, 799 704.357, 799 704.830 M 870.667 704.667 C 870.300 705.033, 870 706.158, 870 707.167 C 870 708.589, 870.771 709, 873.441 709 C 877.209 709, 878.333 708.031, 877.396 705.590 C 876.790 704.011, 871.982 703.351, 870.667 704.667 M 536.200 713.200 C 535.369 714.031, 535 719.210, 535 730.045 C 535 743.932, 535.206 745.876, 536.829 747.345 C 539.551 749.809, 545.210 749.469, 547.826 746.686 C 549.854 744.526, 550 743.387, 550 729.686 C 550 711.299, 548.177 709.712, 547.777 727.750 L 547.494 740.500 546.997 727.343 C 546.724 720.107, 546.837 714.396, 547.250 714.652 C 547.663 714.908, 548 714.690, 548 714.166 C 548 711.882, 538.311 711.089, 536.200 713.200 M 553.750 713.365 C 552.220 714.550, 552 716.624, 552 729.849 C 552 747.513, 552.587 749, 559.567 749 C 566.543 749, 567 747.804, 567 729.564 C 567 716.007, 566.791 713.866, 565.512 714.357 C 564.652 714.687, 564.124 714.416, 564.262 713.714 C 564.606 711.958, 555.938 711.670, 553.750 713.365 M 572.342 713.449 C 572.714 714.418, 572.418 714.714, 571.449 714.342 C 570.221 713.871, 570 716.218, 570 729.738 C 570 743.922, 570.203 745.873, 571.829 747.345 C 574.134 749.431, 579.866 749.483, 582.777 747.443 C 584.911 745.949, 585 745.268, 585 730.443 C 585 709.635, 583.140 709.891, 582.775 730.750 L 582.500 746.500 577.250 746.802 C 574.362 746.969, 571.999 746.744, 571.998 746.302 C 571.997 745.861, 574.135 745.500, 576.748 745.500 L 581.500 745.500 581.500 729.749 C 581.500 721.086, 581.864 713.999, 582.309 713.999 C 582.754 714, 582.840 713.550, 582.500 713 C 582.160 712.450, 579.610 712, 576.834 712 C 572.837 712, 571.902 712.302, 572.342 713.449 M 588.237 713.992 C 587.388 715.352, 587.015 720.500, 587.062 730.242 C 587.124 743.317, 587.305 744.687, 589.239 746.750 C 591.908 749.597, 597.943 749.826, 600.345 747.171 C 601.735 745.635, 602 742.864, 602 729.871 C 602 719.171, 601.630 714.030, 600.800 713.200 C 600.140 712.540, 597.323 712, 594.541 712 C 590.571 712, 589.213 712.429, 588.237 713.992 M 606.655 713.829 C 605.270 715.360, 605 718.104, 605 730.674 C 605 747.883, 605.473 749, 612.756 749 C 615.848 749, 617.303 748.432, 618.677 746.687 C 620.311 744.614, 620.449 742.826, 620.012 729.437 L 619.523 714.500 619.012 730.500 L 618.500 746.500 613 746.500 L 607.500 746.500 607.225 730.250 C 607.074 721.313, 607.299 713.999, 607.725 713.999 C 608.151 713.998, 608.366 721.223, 608.202 730.055 L 607.903 746.114 612.702 745.807 L 617.500 745.500 617.778 730.576 C 617.987 719.307, 617.743 715.454, 616.778 714.841 C 615.778 714.207, 615.772 714.027, 616.750 714.015 C 617.438 714.007, 618 713.550, 618 713 C 618 711.141, 608.456 711.838, 606.655 713.829 M 624.241 713.986 C 623.399 715.333, 623.011 720.565, 623.033 730.236 C 623.073 747.071, 623.882 749, 630.910 749 C 636.602 749, 636.054 747.177, 630.250 746.805 L 625.500 746.500 625.225 730.250 C 625.074 721.313, 625.299 713.999, 625.725 713.999 C 626.151 713.998, 626.366 721.198, 626.202 729.999 L 625.905 746 630.500 746 L 635.095 746 634.798 729.999 C 634.634 721.198, 634.858 713.998, 635.297 713.999 C 635.735 713.999, 635.960 721.426, 635.797 730.501 C 635.633 739.577, 635.837 747.002, 636.250 747.001 C 637.725 746.999, 637.306 715.073, 635.807 713.268 C 635.229 712.570, 632.668 712, 630.118 712 C 626.575 712, 625.189 712.468, 624.241 713.986 M 554.225 730.250 L 554.500 746.500 558.886 746.814 C 561.298 746.987, 563.640 746.762, 564.089 746.314 C 564.539 745.866, 562.790 745.500, 560.203 745.500 L 555.500 745.500 555.500 729.749 C 555.500 721.086, 555.151 713.999, 554.725 713.999 C 554.299 714, 554.074 721.313, 554.225 730.250 M 693 716.563 L 696 717.127 696 731 L 696 744.873 692.750 745.317 L 689.500 745.761 693 745.631 L 696.500 745.500 696.500 731 L 696.500 716.500 693.250 716.250 C 690.046 716.004, 690.042 716.008, 693 716.563 M 742.463 717.237 C 742.175 717.987, 742.065 724.653, 742.220 732.050 L 742.500 745.500 746 745.500 L 749.500 745.500 749.500 731 L 749.500 716.500 746.243 716.186 C 744.177 715.987, 742.795 716.371, 742.463 717.237 M 760.463 717.237 C 760.175 717.987, 760.065 724.653, 760.220 732.050 L 760.500 745.500 764 745.500 L 767.500 745.500 767.500 731 L 767.500 716.500 764.243 716.186 C 762.177 715.987, 760.795 716.371, 760.463 717.237 M 743 731 L 743 745 746 745 L 749 745 749 731 L 749 717 746 717 L 743 717 743 731 M 761 731 L 761 745 764 745 L 767 745 767 731 L 767 717 764 717 L 761 717 761 731 M 674 731 C 674 741, 674.250 743, 675.500 743 C 676.750 743, 677 741, 677 731 C 677 721, 676.750 719, 675.500 719 C 674.250 719, 674 721, 674 731 M 692 731 C 692 738.333, 692.389 743, 693 743 C 693.611 743, 694 738.333, 694 731 C 694 723.667, 693.611 719, 693 719 C 692.389 719, 692 723.667, 692 731 M 709.102 731 C 708.942 741.230, 709.141 743, 710.457 743 C 711.762 743, 712 741.149, 712 731 C 712 721.570, 711.710 719, 710.645 719 C 709.591 719, 709.248 721.663, 709.102 731 M 727.191 728.944 C 727.098 734.413, 727.439 739.925, 727.948 741.194 C 728.594 742.805, 728.892 739.807, 728.937 731.250 C 728.971 724.513, 728.631 719, 728.179 719 C 727.728 719, 727.283 723.475, 727.191 728.944 M 744.882 719.750 C 744.816 720.163, 744.859 720.950, 744.976 721.500 C 745.092 722.050, 745.132 727.112, 745.063 732.750 C 744.984 739.205, 745.319 743, 745.969 743 C 746.620 743, 747 738.576, 747 731 C 747 723.667, 746.611 719, 746 719 C 745.450 719, 744.947 719.337, 744.882 719.750 M 763.015 730.750 C 763.005 738.676, 763.372 743, 764.054 743 C 765.272 743, 765.038 721.659, 763.798 719.708 C 763.376 719.043, 763.024 724.013, 763.015 730.750 M 858.653 724.489 C 854.888 725.793, 851.553 727.114, 851.242 727.424 C 850.932 727.735, 850.637 729.402, 850.588 731.129 C 850.517 733.593, 851.037 734.483, 852.999 735.259 C 854.374 735.804, 856.400 736.613, 857.500 737.058 C 865.010 740.098, 866.872 740.362, 871.191 739.002 C 873.561 738.256, 875.950 737.393, 876.500 737.083 C 877.050 736.774, 880.425 735.564, 884 734.394 C 887.575 733.224, 890.500 731.725, 890.500 731.063 C 890.500 730.400, 887.800 728.974, 884.500 727.894 C 881.200 726.813, 877.600 725.532, 876.500 725.047 C 873.391 723.676, 867.819 721.994, 866.601 722.059 C 865.995 722.091, 862.419 723.184, 858.653 724.489 M 395.910 729.608 C 394.776 730.975, 394.862 731.426, 396.479 732.608 C 398.030 733.742, 405.800 734, 438.469 734 C 473.131 734, 478.856 733.789, 480.777 732.443 C 482 731.587, 483 730.237, 483 729.443 C 483 728.208, 476.820 728, 440.122 728 C 401.947 728, 397.099 728.176, 395.910 729.608 M 839.638 729.500 C 838.778 731.742, 839.975 734, 842.025 734 C 845.114 734, 847 732.863, 847 731 C 847 727.997, 840.707 726.715, 839.638 729.500 M 345.200 752.200 C 341.972 755.428, 344.749 759.011, 350.450 758.973 C 353.671 758.951, 355.268 758.232, 358.250 755.459 C 360.313 753.542, 362 751.754, 362 751.487 C 362 750.392, 346.343 751.057, 345.200 752.200 M 408.018 751.750 C 408.028 752.163, 409.798 753.962, 411.951 755.750 L 415.865 759 441.433 759 C 465.093 759, 469.331 758.559, 465.919 756.450 C 465.324 756.082, 465.108 754.706, 465.438 753.391 L 466.038 751 437.019 751 C 421.059 751, 408.008 751.337, 408.018 751.750 M 840.147 753.250 C 840.215 754.487, 839.937 756.288, 839.528 757.250 C 838.831 758.893, 840.491 758.998, 866.643 758.973 L 894.500 758.946 898.250 755.459 C 900.313 753.542, 902 751.754, 902 751.487 C 902 751.219, 888.055 751, 871.011 751 L 840.022 751 840.147 753.250 M 948.085 751.750 C 948.290 753.566, 955.867 758.988, 957.385 758.406 C 959.277 757.680, 959.527 753.927, 957.800 752.200 C 956.506 750.906, 947.945 750.510, 948.085 751.750 M 537.395 764.412 C 537.097 765.189, 536.999 771.826, 537.177 779.162 L 537.500 792.500 541.750 792.807 L 546 793.115 546 778.057 L 546 763 541.969 763 C 539.419 763, 537.738 763.519, 537.395 764.412 M 555.438 764.300 C 555.164 765.016, 555.065 771.653, 555.220 779.050 L 555.500 792.500 559.750 792.807 L 564 793.115 564 778.057 L 564 763 559.969 763 C 557.583 763, 555.734 763.531, 555.438 764.300 M 573 778 L 573 793 577.500 793 L 582 793 582 778 L 582 763 577.500 763 L 573 763 573 778 M 591 778 L 591 793.115 595.250 792.807 L 599.500 792.500 599.500 778 L 599.500 763.500 595.250 763.193 L 591 762.885 591 778 M 608 778 L 608 793 612.500 793 L 617 793 617 778 L 617 763 612.500 763 L 608 763 608 778 M 626 778 L 626 793 630.500 793 L 635 793 635 778 L 635 763 630.500 763 L 626 763 626 778 M 693 763.563 L 696 764.127 696 778 L 696 791.873 692.750 792.317 L 689.500 792.761 693 792.631 L 696.500 792.500 696.500 778 L 696.500 763.500 693.250 763.250 C 690.046 763.004, 690.042 763.008, 693 763.563 M 742.463 764.237 C 742.175 764.987, 742.065 771.653, 742.220 779.050 L 742.500 792.500 746 792.500 L 749.500 792.500 749.500 778 L 749.500 763.500 746.243 763.186 C 744.177 762.987, 742.795 763.371, 742.463 764.237 M 760.463 764.237 C 760.175 764.987, 760.065 771.653, 760.220 779.050 L 760.500 792.500 764 792.500 L 767.500 792.500 767.500 778 L 767.500 763.500 764.243 763.186 C 762.177 762.987, 760.795 763.371, 760.463 764.237 M 743 778 L 743 792 746 792 L 749 792 749 778 L 749 764 746 764 L 743 764 743 778 M 761 778 L 761 792 764 792 L 767 792 767 778 L 767 764 764 764 L 761 764 761 778 M 383.579 766.655 C 382.738 768.847, 386.402 772.757, 391.500 775.110 C 398.303 778.250, 398.531 777.232, 392.417 771 C 386.251 764.714, 384.630 763.917, 383.579 766.655 M 674 778 C 674 788, 674.250 790, 675.500 790 C 676.750 790, 677 788, 677 778 C 677 768, 676.750 766, 675.500 766 C 674.250 766, 674 768, 674 778 M 692 778 C 692 785.333, 692.389 790, 693 790 C 693.611 790, 694 785.333, 694 778 C 694 770.667, 693.611 766, 693 766 C 692.389 766, 692 770.667, 692 778 M 709.102 778 C 709.248 787.337, 709.591 790, 710.645 790 C 711.710 790, 712 787.430, 712 778 C 712 767.851, 711.762 766, 710.457 766 C 709.141 766, 708.942 767.770, 709.102 778 M 727.583 768.750 C 726.735 772.796, 727.215 790, 728.176 790 C 728.629 790, 729 784.600, 729 778 C 729 771.400, 728.811 766, 728.579 766 C 728.348 766, 727.900 767.237, 727.583 768.750 M 745.063 776.250 C 745.132 781.888, 745.033 787.119, 744.844 787.875 C 744.655 788.631, 745.063 789.456, 745.750 789.708 C 746.706 790.059, 747 787.328, 747 778.083 C 747 770.450, 746.620 766, 745.969 766 C 745.319 766, 744.984 769.795, 745.063 776.250 M 763.015 778.250 C 763.024 784.987, 763.376 789.957, 763.798 789.292 C 765.038 787.341, 765.272 766, 764.054 766 C 763.372 766, 763.005 770.324, 763.015 778.250 M 367.559 771.887 C 366.701 773.544, 366 776.183, 366 777.750 C 366 779.318, 365.467 781.133, 364.817 781.783 C 364.166 782.434, 363.938 783.271, 364.310 783.644 C 365.959 785.292, 372.321 775.213, 371.811 771.761 C 371.329 768.499, 369.279 768.559, 367.559 771.887 M 909.250 777.250 C 908.652 778.487, 907.932 780.850, 907.651 782.500 C 907.370 784.150, 906.814 786.400, 906.416 787.500 C 905.259 790.693, 911.602 784.376, 913.041 780.900 C 915.145 775.821, 911.594 772.402, 909.250 777.250 M 386 783.813 C 386 785.760, 390.082 790.026, 393.750 791.913 C 395.964 793.052, 397.070 791.779, 394.986 790.491 C 394.428 790.146, 393.069 788.095, 391.965 785.932 C 389.822 781.731, 386 780.373, 386 783.813 M 374.201 785.258 C 373.512 786.088, 373.327 788.770, 373.705 792.435 L 374.309 798.287 376.213 794.576 C 379.152 788.848, 377.514 781.266, 374.201 785.258 M 926.356 793.515 C 926.036 794.348, 926.093 796.036, 926.482 797.265 C 926.872 798.494, 927.775 801.525, 928.489 804 L 929.788 808.500 930.894 805.685 C 932.346 801.988, 932.295 798.033, 930.750 794.707 C 929.371 791.738, 927.258 791.164, 926.356 793.515 M 382.196 795.264 C 381.566 796.023, 381.373 799.027, 381.714 802.785 C 382.200 808.145, 382.460 808.788, 383.526 807.266 C 387.659 801.365, 386.419 790.176, 382.196 795.264" stroke="none" fill="#100a0c" fill-rule="evenodd"/><path d="M 643.250 660.563 C 639.813 665.397, 637 670.267, 637 671.384 C 637 672.501, 638.768 678.159, 640.929 683.958 C 643.089 689.756, 645.002 695.353, 645.179 696.396 C 645.401 697.711, 647.035 698.737, 650.500 699.738 C 656.072 701.348, 658.640 703.227, 659.580 706.382 C 659.927 707.547, 662.022 710.188, 664.234 712.252 L 668.257 716.004 667.429 726.252 C 666.028 743.585, 666.791 747.499, 671.779 748.549 C 676.379 749.518, 681.029 751.913, 681.699 753.658 C 682.443 755.598, 678.065 759.523, 674.060 760.508 C 672.652 760.854, 669.543 762.276, 667.152 763.668 C 662.992 766.090, 662.832 766.357, 663.449 769.849 C 665.830 783.347, 664.561 787.980, 657.643 791.040 C 652.523 793.305, 649.698 796.192, 650.176 798.673 C 650.400 799.839, 654.466 802.503, 661.472 806.074 C 681.231 816.148, 682.611 820.728, 666.403 822.442 C 650.414 824.133, 644.644 826.599, 646.885 830.785 C 647.459 831.858, 649.231 832.996, 650.823 833.315 C 653.559 833.862, 662.071 837.497, 671.929 842.329 C 674.364 843.523, 678.729 846.662, 681.629 849.305 C 686.524 853.767, 687.171 854.062, 690.700 853.444 C 700.359 851.752, 720.079 845.761, 729 841.808 C 734.905 839.192, 751.429 830.923, 756.500 828.048 C 761.007 825.492, 777.723 814.056, 781.215 811.140 C 798.499 796.703, 806.464 789.147, 816.672 777.500 C 825.312 767.643, 834 756.110, 834 754.500 C 834 751.853, 816.485 730.433, 804.531 718.461 C 800.208 714.131, 792.044 706.911, 781.651 698.226 C 777.373 694.651, 761.062 683.529, 755 680.054 C 749.698 677.014, 735.700 670.146, 729.500 667.541 C 727.850 666.848, 725.150 665.719, 723.500 665.032 C 707.189 658.240, 684.270 653.436, 663.414 652.439 L 649.500 651.773 643.250 660.563 M 895.704 698.629 C 895.358 698.976, 892.245 700.233, 888.787 701.424 C 882.763 703.498, 882.500 703.728, 882.500 706.918 C 882.500 710.130, 882.734 710.327, 889.095 712.469 C 892.722 713.691, 896.191 715, 896.804 715.379 C 897.417 715.758, 898.724 715.614, 899.709 715.060 C 900.694 714.505, 905.100 712.855, 909.500 711.392 C 923.858 706.620, 923.351 707.213, 915.465 704.411 C 905.199 700.762, 897.113 698, 896.698 698 C 896.498 698, 896.050 698.283, 895.704 698.629 M 538 730 L 538 745.121 541.750 744.810 L 545.500 744.500 545.500 730 L 545.500 715.500 541.750 715.190 L 538 714.879 538 730 M 556.223 729.688 L 556.500 744.500 560.277 744.812 L 564.054 745.124 563.777 730.312 L 563.500 715.500 559.723 715.188 L 555.946 714.876 556.223 729.688 M 573.438 716.300 C 573.164 717.016, 573.065 723.653, 573.220 731.050 L 573.500 744.500 577.250 744.810 L 581 745.121 581 730.060 L 581 715 577.469 715 C 575.493 715, 573.717 715.573, 573.438 716.300 M 591.438 716.300 C 591.164 717.016, 591.065 723.653, 591.220 731.050 L 591.500 744.500 595.250 744.810 L 599 745.121 599 730.060 L 599 715 595.469 715 C 593.493 715, 591.717 715.573, 591.438 716.300 M 609 730 L 609 745 612.500 745 L 616 745 616 730 L 616 715 612.500 715 L 609 715 609 730 M 626.917 715.414 C 626.688 715.641, 626.636 722.391, 626.801 730.414 L 627.103 745 630.551 745 L 634 745 634 730 L 634 715 630.667 715 C 628.833 715, 627.146 715.186, 626.917 715.414 M 671.463 716.235 C 671.177 716.981, 671.068 724.096, 671.221 732.046 L 671.500 746.500 675.500 746.500 L 679.500 746.500 679.500 731 L 679.500 715.500 675.742 715.189 C 673.267 714.984, 671.806 715.342, 671.463 716.235 M 689.250 715.639 C 688.330 716.027, 688 720.095, 688 731.064 L 688 745.962 690.500 746.589 C 691.875 746.934, 694.137 746.932, 695.526 746.583 L 698.052 745.949 697.776 730.724 L 697.500 715.500 694 715.305 C 692.075 715.198, 689.938 715.348, 689.250 715.639 M 706.463 716.235 C 706.177 716.981, 706.068 724.096, 706.221 732.046 L 706.500 746.500 710.500 746.500 L 714.500 746.500 714.500 731 L 714.500 715.500 710.742 715.189 C 708.267 714.984, 706.806 715.342, 706.463 716.235 M 724.714 715.619 C 724.321 716.012, 724 722.978, 724 731.099 C 724 745.158, 724.099 745.897, 726.072 746.523 C 727.212 746.885, 729.249 746.903, 730.598 746.565 L 733.052 745.949 732.776 730.724 L 732.500 715.500 728.964 715.202 C 727.020 715.039, 725.107 715.226, 724.714 715.619 M 741.714 715.620 C 741.321 716.012, 741 723, 741 731.148 L 741 745.962 743.500 746.589 C 744.875 746.934, 747.137 746.932, 748.526 746.583 L 751.052 745.949 750.776 730.724 L 750.500 715.500 746.464 715.203 C 744.244 715.040, 742.106 715.227, 741.714 715.620 M 759.714 715.620 C 759.321 716.012, 759 723, 759 731.148 L 759 745.962 761.500 746.589 C 762.875 746.934, 765.137 746.932, 766.526 746.583 L 769.052 745.949 768.776 730.724 L 768.500 715.500 764.464 715.203 C 762.244 715.040, 760.106 715.227, 759.714 715.620 M 857.417 725.575 C 851.904 727.816, 851.333 728.325, 851.333 731 C 851.333 733.729, 851.854 734.151, 858.211 736.581 C 862.574 738.248, 866.260 739.036, 868.294 738.736 C 872.212 738.158, 890 731.819, 890 731 C 890 729.929, 871.577 723.707, 867.500 723.402 C 864.957 723.211, 861.285 724.002, 857.417 725.575 M 672.724 762.673 C 671.107 763.113, 670.973 764.508, 671.224 778.328 L 671.500 793.500 675.500 793.500 L 679.500 793.500 679.500 778 L 679.500 762.500 677 762.345 C 675.625 762.260, 673.701 762.408, 672.724 762.673 M 689.250 762.662 C 688.329 763.034, 688 767.082, 688 778.064 C 688 792.953, 688.001 792.962, 690.398 793.564 C 691.717 793.895, 693.855 794.016, 695.148 793.833 C 697.483 793.502, 697.502 793.391, 697.778 778.576 C 697.987 767.307, 697.743 763.454, 696.778 762.841 C 695.385 761.958, 691.241 761.859, 689.250 762.662 M 706.463 763.235 C 706.177 763.981, 706.068 771.096, 706.221 779.046 L 706.500 793.500 710.500 793.500 L 714.500 793.500 714.500 778 L 714.500 762.500 710.742 762.189 C 708.267 761.984, 706.806 762.342, 706.463 763.235 M 725.222 762.841 C 724.257 763.454, 724.013 767.307, 724.222 778.576 L 724.500 793.500 728.500 793.500 L 732.500 793.500 732.778 778.576 C 733.070 762.887, 732.848 762.031, 728.500 762.031 C 727.400 762.031, 725.925 762.396, 725.222 762.841 M 742.222 762.841 C 741.257 763.454, 741.013 767.307, 741.222 778.576 L 741.500 793.500 746 793.500 L 750.500 793.500 750.778 778.576 C 751.075 762.599, 750.911 762.031, 746 762.031 C 744.625 762.031, 742.925 762.396, 742.222 762.841 M 760.222 762.841 C 759.257 763.454, 759.013 767.307, 759.222 778.576 L 759.500 793.500 764 793.500 L 768.500 793.500 768.778 778.576 C 769.075 762.599, 768.911 762.031, 764 762.031 C 762.625 762.031, 760.925 762.396, 760.222 762.841 M 538 778 L 538 793.121 541.750 792.810 L 545.500 792.500 545.500 778 L 545.500 763.500 541.750 763.190 L 538 762.879 538 778 M 556.223 777.688 L 556.500 792.500 560.277 792.812 L 564.054 793.124 563.777 778.312 L 563.500 763.500 559.723 763.188 L 555.946 762.876 556.223 777.688 M 573.438 764.300 C 573.164 765.016, 573.065 771.653, 573.220 779.050 L 573.500 792.500 577.250 792.810 L 581 793.121 581 778.060 L 581 763 577.469 763 C 575.493 763, 573.717 763.573, 573.438 764.300 M 591.438 764.300 C 591.164 765.016, 591.065 771.653, 591.220 779.050 L 591.500 792.500 595.250 792.810 L 599 793.121 599 778.060 L 599 763 595.469 763 C 593.493 763, 591.717 763.573, 591.438 764.300 M 609 778 L 609 793 612.500 793 L 616 793 616 778 L 616 763 612.500 763 L 609 763 609 778 M 626.917 763.414 C 626.688 763.641, 626.636 770.391, 626.801 778.414 L 627.103 793 630.551 793 L 634 793 634 778 L 634 763 630.667 763 C 628.833 763, 627.146 763.186, 626.917 763.414" stroke="none" fill="#ffffff" fill-rule="evenodd"/><path d="M 458.500 177.406 C 426.365 190.596, 399.067 204.627, 373 221.352 C 292.514 272.993, 227.602 345.609, 186.043 430.500 C 177.219 448.525, 168.984 467.721, 169.018 470.187 C 169.039 471.711, 200.012 484.124, 204.362 484.351 C 207.102 484.494, 207.454 483.969, 212.624 472.024 C 231.445 428.545, 254.650 390.755, 285.407 353.500 C 298.115 338.107, 331.034 305.180, 346.500 292.391 C 362.324 279.307, 381.052 265.779, 399.500 254.108 C 417.611 242.649, 455.379 223.368, 474.250 215.946 C 485.585 211.488, 488.001 210.184, 488.004 208.519 C 488.006 207.409, 485.194 198.744, 481.754 189.264 C 476.484 174.741, 475.185 172.032, 473.500 172.049 C 472.400 172.060, 465.650 174.471, 458.500 177.406 M 625.450 368.859 C 624.928 369.331, 621.125 370.253, 617 370.906 C 606.487 372.571, 584.461 380.289, 572.378 386.540 C 553.931 396.084, 540.624 405.917, 526.623 420.350 C 506.864 440.718, 493.033 463.093, 484.507 488.479 C 476.367 512.714, 475.003 523.724, 474.990 565.284 L 474.980 597.500 466.861 597.696 C 460.414 597.851, 457.648 598.427, 453.431 600.490 C 446.774 603.747, 438.922 612.213, 436.603 618.633 C 435.636 621.310, 434.419 624.400, 433.900 625.500 C 433.344 626.676, 433.067 642.541, 433.227 664 L 433.500 700.500 472.837 700.579 L 512.173 700.657 516.256 697.579 C 530.940 686.506, 538.642 681.147, 547 676.188 C 552.225 673.088, 556.725 670.262, 557 669.907 C 558.086 668.507, 568.004 664.055, 577.500 660.705 C 583 658.764, 590.650 656.043, 594.500 654.657 C 598.350 653.271, 604.425 651.677, 608 651.115 C 611.575 650.553, 616.975 649.669, 620 649.150 C 623.025 648.631, 632.025 647.654, 640 646.978 C 672.268 644.244, 710.066 651.708, 741.500 667.022 C 757.845 674.985, 766.283 680.132, 781.173 691.222 L 793.847 700.661 828.173 700.507 C 847.053 700.422, 864.638 700.274, 867.250 700.176 L 872 700 872 663.486 C 872 642.582, 871.598 626.231, 871.060 625.236 C 870.542 624.281, 869.336 621.310, 868.379 618.633 C 866.085 612.217, 858.247 603.757, 851.569 600.490 C 847.352 598.427, 844.586 597.851, 838.139 597.696 L 830.020 597.500 830.010 565.284 C 829.997 523.724, 828.633 512.714, 820.493 488.479 C 808.164 451.769, 783.111 418.989, 750.656 397.102 C 733.125 385.279, 705.302 373.647, 688 370.906 C 683.875 370.253, 680.073 369.331, 679.550 368.859 C 679.028 368.387, 666.855 368, 652.500 368 C 638.145 368, 625.972 368.387, 625.450 368.859 M 641.278 444.068 C 594.964 448.549, 556.892 486.310, 551.109 533.500 C 550.502 538.450, 550.004 554.875, 550.003 570 L 550 597.500 652.500 597.500 L 755 597.500 754.997 570 C 754.996 554.875, 754.498 538.450, 753.891 533.500 C 748.911 492.863, 720.150 458.823, 681.188 447.454 C 674.328 445.453, 654.254 442.629, 650.500 443.137 C 649.950 443.212, 645.800 443.630, 641.278 444.068 M 426.654 704.750 C 426.231 705.433, 455.913 705.417, 491.500 704.716 C 499.200 704.565, 487.864 704.341, 466.309 704.220 C 444.754 704.099, 426.909 704.337, 426.654 704.750 M 815.311 704.748 C 823.457 704.916, 836.507 704.916, 844.311 704.747 C 852.115 704.579, 845.450 704.441, 829.500 704.441 C 813.550 704.442, 807.165 704.580, 815.311 704.748 M 429.750 713.723 C 432.969 714.123, 433 714.179, 433 719.563 L 433 725 460.043 725 L 487.086 725 491.876 720.519 C 500.226 712.709, 501.337 712.979, 461.583 713.160 C 442.288 713.248, 427.962 713.502, 429.750 713.723 M 808.641 713.692 C 808.260 714.073, 810.307 716.773, 813.190 719.692 L 818.432 725 832.466 724.995 C 845.815 724.990, 846.915 724.834, 855 721.787 C 859.675 720.025, 865.413 718.577, 867.750 718.568 C 871.465 718.555, 872 718.274, 872 716.340 C 872 714.592, 872.684 714.042, 875.250 713.723 C 877.038 713.502, 862.938 713.248, 843.917 713.160 C 824.896 713.072, 809.022 713.312, 808.641 713.692 M 537.462 715.238 C 537.176 715.983, 537.068 723.096, 537.221 731.046 L 537.500 745.500 542 745.500 L 546.500 745.500 546.500 730 L 546.500 714.500 542.241 714.192 C 539.353 713.983, 537.814 714.320, 537.462 715.238 M 555.462 715.238 C 555.176 715.983, 555.068 723.096, 555.221 731.046 L 555.500 745.500 560 745.500 L 564.500 745.500 564.500 730 L 564.500 714.500 560.241 714.192 C 557.353 713.983, 555.814 714.320, 555.462 715.238 M 572.462 715.238 C 572.176 715.983, 572.068 723.096, 572.221 731.046 L 572.500 745.500 577 745.500 L 581.500 745.500 581.500 730 L 581.500 714.500 577.241 714.192 C 574.353 713.983, 572.814 714.320, 572.462 715.238 M 590.462 715.238 C 590.176 715.983, 590.068 723.096, 590.221 731.046 L 590.500 745.500 595 745.500 L 599.500 745.500 599.500 730 L 599.500 714.500 595.241 714.192 C 592.353 713.983, 590.814 714.320, 590.462 715.238 M 608.653 714.750 C 608.396 715.163, 610.057 715.500, 612.344 715.500 L 616.500 715.500 616.500 730 L 616.500 744.500 612.249 744.500 C 609.910 744.500, 607.998 744.862, 607.999 745.305 C 607.999 745.747, 610.138 745.972, 612.750 745.805 L 617.500 745.500 617.778 730.576 C 617.987 719.307, 617.743 715.454, 616.778 714.841 C 615.164 713.818, 609.272 713.751, 608.653 714.750 M 626.677 714.714 C 626.397 715.166, 627.930 715.369, 630.084 715.163 L 634 714.790 634 730 L 634 745.210 630 744.829 C 627.800 744.619, 626 744.797, 626 745.224 C 626 745.651, 628.036 746, 630.525 746 L 635.051 746 634.775 730.250 L 634.500 714.500 630.843 714.195 C 628.831 714.028, 626.957 714.261, 626.677 714.714 M 538 730 L 538 745 542 745 L 546 745 546 730 L 546 715 542 715 L 538 715 538 730 M 556 730 L 556 745 560 745 L 564 745 564 730 L 564 715 560 715 L 556 715 556 730 M 573 730 L 573 745 577 745 L 581 745 581 730 L 581 715 577 715 L 573 715 573 730 M 591 730 L 591 745 595 745 L 599 745 599 730 L 599 715 595 715 L 591 715 591 730 M 671.402 731 C 671.402 739.525, 671.556 743.013, 671.743 738.750 C 671.931 734.487, 671.931 727.513, 671.743 723.250 C 671.556 718.987, 671.402 722.475, 671.402 731 M 679.402 731 C 679.402 739.525, 679.556 743.013, 679.743 738.750 C 679.931 734.487, 679.931 727.513, 679.743 723.250 C 679.556 718.987, 679.402 722.475, 679.402 731 M 688.809 716.750 C 688.639 717.163, 688.744 724.025, 689.042 732 L 689.584 746.500 689.792 731.250 C 689.979 717.522, 689.769 714.420, 688.809 716.750 M 696.500 731 C 696.500 739.250, 696.837 746, 697.250 746 C 697.663 746, 698 739.250, 698 731 C 698 722.750, 697.663 716, 697.250 716 C 696.837 716, 696.500 722.750, 696.500 731 M 706.402 731 C 706.402 739.525, 706.556 743.013, 706.743 738.750 C 706.931 734.487, 706.931 727.513, 706.743 723.250 C 706.556 718.987, 706.402 722.475, 706.402 731 M 714.397 730 C 714.397 737.975, 714.553 741.237, 714.743 737.250 C 714.932 733.263, 714.932 726.737, 714.743 722.750 C 714.553 718.763, 714.397 722.025, 714.397 730 M 724 731 C 724 739.250, 724.337 746, 724.750 746 C 725.163 746, 725.500 739.250, 725.500 731 C 725.500 722.750, 725.163 716, 724.750 716 C 724.337 716, 724 722.750, 724 731 M 731.764 726.248 C 732.244 744.884, 732.628 746.709, 732.815 731.250 C 732.917 722.862, 732.663 715.999, 732.250 715.998 C 731.837 715.997, 731.619 720.609, 731.764 726.248 M 759.667 716.667 C 758.744 717.589, 758.823 744.773, 759.750 745.345 C 760.163 745.600, 760.500 739.102, 760.500 730.905 C 760.500 722.707, 760.462 716, 760.417 716 C 760.371 716, 760.033 716.300, 759.667 716.667 M 417.750 728.749 C 429.438 728.909, 448.563 728.909, 460.250 728.749 C 471.938 728.589, 462.375 728.458, 439 728.458 C 415.625 728.458, 406.063 728.589, 417.750 728.749 M 418.317 733.749 C 429.766 733.910, 448.216 733.909, 459.317 733.749 C 470.418 733.588, 461.050 733.456, 438.500 733.457 C 415.950 733.457, 406.868 733.589, 418.317 733.749 M 433 742.477 L 433 746.955 414.750 747.251 C 404.712 747.415, 412.758 747.650, 432.630 747.774 L 468.759 748 472.380 743.582 C 474.371 741.152, 476 738.902, 476 738.582 C 476 738.262, 466.325 738, 454.500 738 L 433 738 433 742.477 M 830 738.582 C 830 738.902, 831.629 741.152, 833.620 743.582 L 837.241 748 875.370 747.985 C 896.342 747.976, 914.021 747.639, 914.658 747.235 C 915.295 746.831, 905.958 746.637, 893.908 746.804 C 873.100 747.093, 872 747.015, 872 745.246 C 872 743.702, 871.189 743.372, 867.250 743.310 C 864.533 743.268, 859.834 742.116, 856.270 740.618 C 850.950 738.383, 848.575 738, 840.020 738 C 834.509 738, 830 738.262, 830 738.582 M 423.750 751.747 C 431.038 751.918, 442.962 751.918, 450.250 751.747 C 457.538 751.577, 451.575 751.437, 437 751.437 C 422.425 751.437, 416.462 751.577, 423.750 751.747 M 856.750 751.748 C 864.587 751.917, 877.413 751.917, 885.250 751.748 C 893.087 751.579, 886.675 751.441, 871 751.441 C 855.325 751.441, 848.913 751.579, 856.750 751.748 M 433 836.514 C 433 880.523, 433.377 910.724, 433.940 911.764 C 434.458 912.719, 435.670 915.706, 436.635 918.403 C 438.738 924.283, 447.004 933.566, 452.972 936.750 L 457.189 939 652.500 939 L 847.811 939 852.032 936.750 C 859.457 932.792, 870 919.190, 870 913.570 C 870 912.771, 870.450 911.840, 871 911.500 C 871.652 911.097, 872 885.156, 872 836.941 L 872 763 853.662 763 L 835.324 763 828.931 771.250 C 819.742 783.110, 801.182 801.907, 789 811.694 C 761.387 833.876, 730.150 849.855, 701.500 856.453 C 697.650 857.340, 692.925 858.478, 691 858.982 C 689.075 859.486, 679.769 860.664, 670.320 861.598 C 654.296 863.184, 652.010 863.188, 636.320 861.662 C 614.559 859.546, 606.520 857.869, 587.360 851.446 C 561.898 842.911, 535.802 827.806, 513 808.404 C 499.478 796.898, 478.055 774.313, 472.541 765.750 L 470.770 763 451.885 763 L 433 763 433 836.514 M 581.402 778 C 581.402 786.525, 581.556 790.013, 581.743 785.750 C 581.931 781.487, 581.931 774.513, 581.743 770.250 C 581.556 765.987, 581.402 769.475, 581.402 778 M 608.397 777 C 608.397 784.975, 608.553 788.237, 608.743 784.250 C 608.932 780.263, 608.932 773.737, 608.743 769.750 C 608.553 765.763, 608.397 769.025, 608.397 777 M 634.402 778 C 634.402 786.525, 634.556 790.013, 634.743 785.750 C 634.931 781.487, 634.931 774.513, 634.743 770.250 C 634.556 765.987, 634.402 769.475, 634.402 778 M 671.402 778 C 671.402 786.525, 671.556 790.013, 671.743 785.750 C 671.931 781.487, 671.931 774.513, 671.743 770.250 C 671.556 765.987, 671.402 769.475, 671.402 778 M 679.402 778 C 679.402 786.525, 679.556 790.013, 679.743 785.750 C 679.931 781.487, 679.931 774.513, 679.743 770.250 C 679.556 765.987, 679.402 769.475, 679.402 778 M 688.970 763.500 C 688.653 768.720, 689.033 792.366, 689.439 792.773 C 689.748 793.081, 690 786.508, 690 778.167 C 690 769.825, 689.775 763, 689.500 763 C 689.225 763, 688.986 763.225, 688.970 763.500 M 696.500 778 C 696.500 786.250, 696.837 793, 697.250 793 C 697.663 793, 698 786.250, 698 778 C 698 769.750, 697.663 763, 697.250 763 C 696.837 763, 696.500 769.750, 696.500 778 M 706.402 778 C 706.402 786.525, 706.556 790.013, 706.743 785.750 C 706.931 781.487, 706.931 774.513, 706.743 770.250 C 706.556 765.987, 706.402 769.475, 706.402 778 M 724 778 C 724 786.250, 724.337 793, 724.750 793 C 725.163 793, 725.500 786.250, 725.500 778 C 725.500 769.750, 725.163 763, 724.750 763 C 724.337 763, 724 769.750, 724 778 M 731.800 778.001 C 731.635 786.252, 731.837 793.002, 732.250 793.001 C 732.663 793.001, 733 786.250, 733 778 C 733 769.750, 732.798 763, 732.550 763 C 732.303 763, 731.965 769.751, 731.800 778.001 M 759.667 763.667 C 758.744 764.589, 758.823 791.773, 759.750 792.345 C 760.163 792.600, 760.500 786.102, 760.500 777.905 C 760.500 769.707, 760.462 763, 760.417 763 C 760.371 763, 760.033 763.300, 759.667 763.667 M 555.397 778 C 555.397 785.975, 555.553 789.237, 555.743 785.250 C 555.932 781.263, 555.932 774.737, 555.743 770.750 C 555.553 766.763, 555.397 770.025, 555.397 778 M 599.397 778 C 599.397 785.975, 599.553 789.237, 599.743 785.250 C 599.932 781.263, 599.932 774.737, 599.743 770.750 C 599.553 766.763, 599.397 770.025, 599.397 778 M 714.397 779 C 714.397 786.975, 714.553 790.237, 714.743 786.250 C 714.932 782.263, 714.932 775.737, 714.743 771.750 C 714.553 767.763, 714.397 771.025, 714.397 779" stroke="none" fill="#2c5a97" fill-rule="evenodd"/><path d="M 656 160.500 L 656 180 663.750 180.004 C 674.084 180.009, 696.584 181.688, 712 183.603 C 871.875 203.468, 1013.037 304.754, 1083.974 450.500 C 1108.167 500.208, 1122.558 549.616, 1129.555 607 C 1133.094 636.024, 1132.583 687.631, 1128.441 719.500 C 1112.142 844.915, 1046.690 958.990, 945.914 1037.626 C 882.225 1087.322, 804.319 1120.738, 723.663 1132.954 C 682.392 1139.205, 634.061 1139.743, 592.500 1134.414 C 505.582 1123.270, 423.015 1088.067, 353.486 1032.510 C 291.867 983.272, 241.282 916.218, 210.522 843 C 204.059 827.617, 195.008 801.566, 195.003 798.333 C 195.002 797.142, 194.615 796.017, 194.145 795.833 C 192.978 795.379, 186.725 771.691, 183.101 754 C 177.357 725.959, 173.764 691.801, 173.027 658.250 C 173.006 657.294, 168.418 657, 153.495 657 L 133.990 657 134.479 666.750 C 134.748 672.113, 135.212 682.350, 135.510 689.500 C 136.708 718.227, 141.986 753.266, 150 785.694 C 152.750 796.822, 155 806.972, 155 808.251 C 155 809.531, 155.904 812.351, 157.010 814.519 C 158.115 816.688, 160.185 822.295, 161.609 826.981 C 163.033 831.666, 164.543 835.950, 164.965 836.500 C 165.387 837.050, 168.317 844.025, 171.477 852 C 196.574 915.334, 236 975.015, 285.470 1024.556 C 306.067 1045.183, 320.109 1057.451, 341.500 1073.511 C 418.612 1131.402, 505.144 1164.924, 604 1175.201 C 620.407 1176.906, 686.271 1176.912, 702 1175.210 C 798.278 1164.788, 881.838 1133.364, 955.705 1079.800 C 1006.828 1042.729, 1023.495 1027.165, 1054.010 988 C 1060.224 980.025, 1065.921 973.136, 1066.669 972.692 C 1069.239 971.166, 1072.011 967.609, 1074.177 963.057 C 1075.370 960.551, 1078.241 955.800, 1080.556 952.500 C 1087.942 941.972, 1098.459 924.921, 1106.460 910.500 C 1110.732 902.800, 1115.269 895.375, 1116.543 894 C 1117.816 892.625, 1119.181 890.191, 1119.577 888.591 C 1119.973 886.990, 1123.099 879.790, 1126.524 872.591 C 1149.833 823.592, 1165.346 760.517, 1170.078 695.500 C 1171.790 671.984, 1170.742 622.276, 1168.059 599.730 C 1159.599 528.650, 1137.603 461.768, 1102.536 400.500 C 1094.392 386.271, 1073.663 355.431, 1063.553 342.500 C 1012.679 277.437, 951.589 227.882, 878.542 192.419 C 819.049 163.537, 755.783 146.824, 687.813 142.035 C 679.735 141.466, 669.272 141, 664.563 141 L 656 141 656 160.500 M 466 705 C 431.778 705.433, 426.500 705.700, 426.500 707 C 426.500 708.303, 431.493 708.531, 464.500 708.735 C 500.087 708.955, 502.651 708.853, 504.886 707.128 C 506.198 706.115, 506.873 705.109, 506.386 704.893 C 505.899 704.677, 487.725 704.725, 466 705 M 799.427 705.116 C 799.218 705.455, 799.867 706.475, 800.870 707.382 C 802.488 708.847, 805.832 709.002, 830.583 708.766 C 856.045 708.523, 858.502 708.350, 858.804 706.779 C 859.110 705.188, 856.906 705.038, 829.471 704.779 C 813.156 704.626, 799.636 704.777, 799.427 705.116 M 741.687 715.697 C 741.414 716.139, 743.161 716.343, 745.569 716.151 L 749.947 715.803 750.264 730.903 L 750.581 746.002 750.540 730.751 L 750.500 715.500 746.342 715.197 C 744.055 715.030, 741.960 715.255, 741.687 715.697 M 616.397 730 C 616.397 737.975, 616.553 741.237, 616.743 737.250 C 616.932 733.263, 616.932 726.737, 616.743 722.750 C 616.553 718.763, 616.397 722.025, 616.397 730 M 688.397 732 C 688.397 739.975, 688.553 743.237, 688.743 739.250 C 688.932 735.263, 688.932 728.737, 688.743 724.750 C 688.553 720.763, 688.397 724.025, 688.397 732 M 438.750 728.750 C 396.835 729.016, 396 729.060, 396 731.011 C 396 732.965, 396.742 733, 437.845 733 C 477.114 733, 479.792 732.887, 481.345 731.171 C 483.083 729.251, 483.520 727.834, 482.250 728.239 C 481.837 728.370, 462.262 728.600, 438.750 728.750 M 352.603 751.927 C 347.438 752.356, 345.428 752.954, 344.603 754.309 C 343.722 755.753, 343.890 756.407, 345.441 757.559 C 348.583 759.891, 352.845 759.291, 357.106 755.916 C 360.608 753.143, 362.220 750.713, 360.250 751.177 C 359.837 751.274, 356.396 751.611, 352.603 751.927 M 409 752.123 C 409 752.465, 410.648 754.153, 412.661 755.873 L 416.322 759 441.278 759 L 466.233 759 465.630 756.750 C 465.299 755.513, 465.021 753.825, 465.014 753 C 465.002 751.703, 461.216 751.500, 437 751.500 C 421.600 751.500, 409 751.780, 409 752.123 M 840.942 751.500 C 840.911 751.500, 840.707 753.188, 840.490 755.250 L 840.096 759 867.013 759 L 893.930 759 897.465 755.896 C 899.409 754.189, 901 752.502, 901 752.146 C 901 751.791, 887.500 751.500, 871 751.500 C 854.500 751.500, 840.974 751.500, 840.942 751.500 M 949 751.898 C 949 753.450, 955.170 758.114, 956.811 757.801 C 958.854 757.412, 959.677 753.158, 957.820 752.581 C 954.764 751.631, 949 751.185, 949 751.898 M 750.220 777.851 L 750 793.201 745.595 792.851 C 743.173 792.658, 741.400 792.837, 741.654 793.250 C 742.459 794.551, 750.029 794.087, 750.560 792.704 C 750.834 791.991, 750.919 784.904, 750.749 776.954 L 750.441 762.500 750.220 777.851 M 616.397 778 C 616.397 785.975, 616.553 789.237, 616.743 785.250 C 616.932 781.263, 616.932 774.737, 616.743 770.750 C 616.553 766.763, 616.397 770.025, 616.397 778" stroke="none" fill="#f8dc15" fill-rule="evenodd"/><path d="M 624 232.095 C 439.398 245.084, 283.956 375.428, 238.953 554.972 C 210.373 668.989, 230.062 790.140, 293.319 889.500 C 351.986 981.650, 445.659 1048.774, 552.011 1074.872 C 586.825 1083.415, 613.446 1086.417, 654.500 1086.430 C 687.731 1086.440, 700.143 1085.505, 727.130 1080.955 C 862.952 1058.054, 980.724 969.212, 1040.583 844.500 C 1083.597 754.884, 1093.958 653.005, 1069.983 555.402 C 1042.435 443.250, 968.542 345.646, 867 287.284 C 794.633 245.691, 708.569 226.144, 624 232.095 M 631.842 277.016 C 580.814 280.181, 530.647 293.677, 484.724 316.593 C 369.716 373.985, 290.866 484.652, 274.529 611.607 C 264.278 691.270, 280.884 775.818, 320.467 845.500 C 373.343 938.583, 459.920 1004.603, 563.171 1030.578 C 593.988 1038.330, 619.776 1041.413, 654 1041.436 C 679.917 1041.454, 692.524 1040.514, 715 1036.888 C 812.203 1021.210, 900.616 967.642, 960.140 888.362 C 1001.743 832.951, 1026.531 770.872, 1035.152 700.500 C 1037.197 683.808, 1036.906 630.217, 1034.680 613.500 C 1022.909 525.120, 984.563 447.954, 921.850 386.445 C 866.124 331.789, 798.531 296.685, 721.843 282.572 C 694.587 277.556, 658.773 275.345, 631.842 277.016" stroke="none" fill="#e51f23" fill-rule="evenodd"/></svg>